# AST/ASF file generated using VICON BodyLanguage
# -----------------------------------------------
:version 1.10
:name VICON
:units
  mass 1.0
  length 0.45
  angle deg
:documentation
   .ast/.asf automatically generated from VICON data using
   VICON BodyBuilder and BodyLanguage model FoxedUp or BRILLIANT.MOD
:root
   order TX TY TZ RX RY RZ
   axis XYZ
   position 0 0 0  
   orientation 0 0 0 
:bonedata
  begin
     id 1 
     name lhipjoint
     direction 0.602128 -0.715006 0.355257 
     length 2.21237 
     axis 0 0 0  XYZ
  end
  begin
     id 2 
     name lfemur
     direction 0.34202 -0.939693 0  
     length 6.71649  
     axis 0 0 20  XYZ
    dof rx ry rz
    limits (-160.0 20.0)
           (-70.0 70.0)
           (-60.0 70.0)
  end
  begin
     id 3 
     name ltibia
     direction 0.34202 -0.939693 0   
     length 6.97123   
     axis 0 0 20   XYZ
    dof rx
    limits (-10.0 170.0)
  end
  begin
     id 4 
     name lfoot
     direction 0.0655697 -0.180151 0.981451   
     length 1.80924   
     axis -90 7.62852e-016 20   XYZ
    dof rx rz
    limits (-45.0 90.0)
           (-70.0 20.0)
  end
  begin
     id 5 
     name ltoes
     direction 1.53545e-011 -4.21827e-011 1   
     length 0.916331   
     axis -90 7.62852e-016 20   XYZ
    dof rx
    limits (-90.0 20.0)
  end
  begin
     id 6 
     name rhipjoint
     direction -0.625414 -0.698792 0.347201   
     length 2.2637  
     axis 0 0 0  XYZ 
  end
  begin
     id 7 
     name rfemur
     direction -0.34202 -0.939693 0   
     length 7.07595   
     axis 0 0 -20   XYZ
    dof rx ry rz
    limits (-160.0 20.0)
           (-70.0 70.0)
           (-70.0 60.0)
  end
  begin
     id 8 
     name rtibia
     direction -0.34202 -0.939693 0   
     length 7.22924   
     axis 0 0 -20   XYZ
    dof rx
    limits (-10.0 170.0)
 end
 begin
     id 9 
     name rfoot
     direction -0.0766747 -0.210662 0.974547   
     length 1.98482  
     axis -90 -7.62852e-016 -20   XYZ
    dof rx rz
    limits (-45.0 90.0)
           (-20.0 70.0)
  end
  begin
     id 10 
     name rtoes
     direction -1.53532e-011 -4.21867e-011 1   
     length 0.999842   
     axis -90 -7.62852e-016 -20   XYZ
    dof rx
    limits (-90.0 20.0)
  end
  begin
     id 11 
     name lowerback
     direction -0.0224668 0.997354 -0.0691422   
     length 2.09945   
     axis 0 0 0   XYZ
    dof rx ry rz
    limits (-20.0 45.0)
           (-30.0 30.0)
           (-30.0 30.0)
  end
  begin
     id 12 
     name upperback
     direction 0.0134698 0.998451 -0.0539888   
     length 2.09758   
     axis 0 0 0   XYZ
    dof rx ry rz
    limits (-20.0 45.0)
           (-30.0 30.0)
           (-30.0 30.0)
  end
  begin
     id 13 
     name thorax
     direction 0.0241905 0.99948 -0.0213333   
     length 2.10428   
     axis 0 0 0   XYZ
    dof rx ry rz
    limits (-20.0 45.0)
           (-30.0 30.0)
           (-30.0 30.0)
  end
  begin
     id 14 
     name lowerneck
     direction -0.00866847 0.995978 0.0891737   
     length 1.3959   
     axis 0 0 0   XYZ
    dof rx ry rz
    limits (-20.0 45.0)
           (-30.0 30.0)
           (-30.0 30.0)
  end
  begin
     id 15 
     name upperneck
     direction 0.0680679 0.992203 0.104404   
     length 1.39452   
     axis 0 0 0   XYZ
    dof rx ry rz
    limits (-20.0 45.0)
           (-30.0 30.0)
           (-30.0 30.0)
  end
  begin
     id 16
     name head
     direction 0.0242216 0.999358 0.0264054  
     length 1.40433  
     axis 0 0 0   XYZ
    dof rx ry rz
    limits (-20.0 45.0)
           (-30.0 30.0)
           (-30.0 30.0)
  end
  begin
     id 17 
     name lclavicle
     direction 0.929368 0.362991 -0.0671771  
     length 3.04887  
     axis 0 0 0   XYZ
    dof ry rz
    limits (-20.0 10.0)
           (0.0 20.0)
  end
  begin
     id 18 
     name lhumerus
     direction 1 -4.48967e-011 -7.13741e-028   
     length 4.77195   
     axis -180 -30 -90   XYZ
    dof rx ry rz
    limits (-60.0 90.0)
           (-90.0 90.0)
           (-90.0 90.0)
  end
  begin
     id 19
     name lradius
     direction 1 -4.48977e-011 3.60404e-027   
     length 2.98444   
     axis -180 -30 -90   XYZ
    dof rx
    limits (-10.0 170.0)
  end
  begin
     id 20
     name lwrist
     direction 1 -4.48997e-011 7.54877e-027   
     length 1.49222   
     axis -7.18178e-015 90 90   XYZ
    dof ry
    limits (-180.0 0.0)
 end
  begin
     id 21 
     name lhand
     direction 1 -4.489e-011 1.51105e-026   
     length 0.992285   
     axis -9.63605e-015 90 90   XYZ
    dof rx rz
    limits (-90.0 90.0)
           (-45.0 45.0)
  end
  begin
     id 22 
     name lfingers
     direction 1 -4.48998e-011 3.01948e-026   
     length 0.800006   
     axis -1.92718e-014 90 90   XYZ
    dof rx
    limits (0.0 90.0)
  end
  begin
     id 23
     name lthumb
     direction 0.707107 -6.34881e-011 0.707107   
     length 1.14865   
     axis -90 45 -3.53137e-014   XYZ
    dof rx rz
    limits (-45.0 45.0)
           (-45.0 45.0)
  end
  begin
     id 24 
     name rclavicle
     direction -0.945672 0.324529 0.0196374   
     length 3.4236  
     axis 0 0 0   XYZ 
    dof ry rz
    limits (-10.0 20.0)
           (-20.0 0.0)
  end
  begin
     id 25 
     name rhumerus
     direction -1 -4.4896e-011 1.02757e-029  
     length 4.62052   
     axis -180 30 90   XYZ
    dof rx ry rz
    limits (-90.0 60.0)
           (-90.0 90.0)
           (-90.0 90.0)
  end
  begin
     id 26 
     name rradius
     direction -1 -4.48982e-011 3.85962e-027   
     length 2.95332   
     axis -180 30 90   XYZ
    dof rx
    limits (-10.0 170.0)
  end
  begin
     id 27 
     name rwrist
     direction -1 -4.48961e-011 7.55118e-027   
     length 1.47666   
     axis -7.18178e-015 -90 -90   XYZ
    dof ry
    limits (-180.0 0.0)
  end
  begin
     id 28
     name rhand
     direction -1 -4.48984e-011 1.50994e-026   
     length 0.990956   
     axis -9.63605e-015 -90 -90   XYZ
    dof rx rz
    limits (-90.0 90.0)
           (-45.0 45.0)
  end
  begin
     id 29
     name rfingers
     direction -1 -4.4892e-011 3.02158e-026   
     length 0.798934   
     axis -1.92718e-014 -90 -90   XYZ
    dof rx
    limits (0.0 90.0)
  end
  begin
     id 30
     name rthumb
     direction -0.707107 -6.34916e-011 0.707107   
     length 1.14711   
     axis -90 -45 3.53137e-014   XYZ
    dof rx rz
    limits (-45.0 45.0)
           (-45.0 45.0)
  end
:hierarchy
  begin
    root lhipjoint rhipjoint lowerback
    lhipjoint lfemur
    lfemur ltibia
    ltibia lfoot
    lfoot ltoes
    rhipjoint rfemur
    rfemur rtibia
    rtibia rfoot
    rfoot rtoes
    lowerback upperback
    upperback thorax
    thorax lowerneck lclavicle rclavicle
    lowerneck upperneck
    upperneck head
    lclavicle lhumerus
    lhumerus lradius
    lradius lwrist
    lwrist lhand lthumb
    lhand lfingers
    rclavicle rhumerus
    rhumerus rradius
    rradius rwrist
    rwrist rhand rthumb
    rhand rfingers
  end

#!OML:ASF H:\ManfredObstacles\Project 1\Capture day 1\Session 1\Male.ASF
:FULLY-SPECIFIED
:DEGREES
145
root -13.2524 16.2094 32.7357 -170.967 -0.614821 -179.103
lowerback -7.04799 -0.904137 -1.07277
upperback 2.2908 -1.11386 0.0198769
thorax 6.37047 -0.594139 0.484384
lowerneck 1.05615 -1.57381 -4.86027
upperneck -9.89159 -1.1874 8.01539
head -3.34682 -0.509637 3.5991
rclavicle 1.88845e-015 -5.96354e-016
rhumerus -34.0339 -21.294 -77.9901
rradius 25.7294
rwrist 32.985
rhand -2.29223 -6.49581
rfingers 7.12502
rthumb 23.3931 -35.0941
lclavicle 1.88845e-015 -5.96354e-016
lhumerus -26.7587 16.829 80.6008
lradius 19.2323
lwrist -32.1652
lhand -6.58839 8.5348
lfingers 7.12502
lthumb 19.2667 37.6004
rfemur -11.7636 -2.21079 24.9194
rtibia 25.0644
rfoot -23.179 19.908
rtoes 20.2846
lfemur -37.5896 -4.04395 -15.9772
ltibia 36.3551
lfoot -1.65226 3.35757
ltoes -3.20218
146
root -13.2423 16.1989 32.5534 -170.869 -0.324046 -179.241
lowerback -7.24319 -0.893149 -1.35526
upperback 2.27523 -1.06875 0.0202918
thorax 6.47089 -0.583282 0.646323
lowerneck 1.27716 -1.48541 -4.93433
upperneck -10.1138 -1.07202 7.92945
head -3.47532 -0.450953 3.5903
rclavicle 1.12313e-014 -1.19271e-015
rhumerus -33.7182 -20.7478 -78.3828
rradius 25.8431
rwrist 32.8729
rhand -2.40921 -6.28384
rfingers 7.12502
rthumb 23.2809 -34.8963
lclavicle 1.12313e-014 -1.19271e-015
lhumerus -27.1186 17.9453 79.9106
lradius 18.7445
lwrist -33.1734
lhand -6.4353 8.62259
lfingers 7.12502
lthumb 19.4139 37.6734
rfemur -10.8774 -2.12391 24.7638
rtibia 24.5186
rfoot -23.9871 20.0697
rtoes 20.4724
lfemur -37.2014 -3.74776 -16.0567
ltibia 32.1964
lfoot -0.808949 1.89127
ltoes 2.62854
147
root -13.2409 16.1819 32.37 -170.757 -0.0723513 -179.182
lowerback -7.37323 -0.827044 -1.27201
upperback 2.20734 -0.983502 -0.0168732
thorax 6.46939 -0.536299 0.570513
lowerneck 1.45923 -1.44055 -4.83519
upperneck -10.5092 -0.972469 8.09178
head -3.2737 -0.441331 3.27497
rclavicle -5.01931e-015 -1.19271e-015
rhumerus -33.5364 -20.1792 -78.8439
rradius 26.0332
rwrist 32.6263
rhand -2.48957 -6.20151
rfingers 7.12502
rthumb 23.2038 -34.8237
lclavicle -5.01931e-015 -1.19271e-015
lhumerus -27.5393 18.8434 79.1696
lradius 18.2088
lwrist -33.9756
lhand -6.52185 8.57866
lfingers 7.12502
lthumb 19.3306 37.6379
rfemur -9.97906 -2.17178 24.7682
rtibia 23.9012
rfoot -23.6544 20.6602
rtoes 22.1082
lfemur -36.7766 -3.54452 -15.905
ltibia 28.253
lfoot 0.441055 0.506699
ltoes 8.62063
148
root -13.2405 16.1702 32.1824 -170.706 0.147124 -179.052
lowerback -7.44267 -0.742502 -1.10477
upperback 2.17428 -0.873673 -0.0674002
thorax 6.46831 -0.470411 0.437794
lowerneck 1.39362 -1.42576 -4.77337
upperneck -10.0869 -1.00645 7.81362
head -3.49251 -0.425727 3.51806
rclavicle -4.82053e-015 7.95139e-016
rhumerus -33.292 -19.7851 -79.2644
rradius 26.1061
rwrist 32.3912
rhand -2.43465 -6.02729
rfingers 7.12502
rthumb 23.2565 -34.6429
lclavicle -4.82053e-015 7.95139e-016
lhumerus -27.9172 19.4513 78.4638
lradius 17.7284
lwrist -34.7427
lhand -6.60696 8.58241
lfingers 7.12502
lthumb 19.2488 37.6498
rfemur -8.97126 -2.17125 24.8542
rtibia 23.2396
rfoot -23.3669 21.0097
rtoes 23.5063
lfemur -36.3364 -3.06358 -15.8805
ltibia 24.6566
lfoot 1.58461 -1.27538
ltoes 9.5053
149
root -13.2423 16.1562 31.9881 -170.77 0.372788 -178.993
lowerback -7.46278 -0.669494 -1.05881
upperback 2.21301 -0.776835 -0.111937
thorax 6.51781 -0.420034 0.377497
lowerneck 1.19515 -1.39381 -4.85875
upperneck -9.895 -0.959354 7.95392
head -3.39201 -0.399923 3.57428
rclavicle -1.83876e-015 0
rhumerus -32.9846 -19.6493 -79.5595
rradius 26.1406
rwrist 32.2845
rhand -2.52932 -5.75335
rfingers 7.12502
rthumb 23.1656 -34.3804
lclavicle -1.83876e-015 0
lhumerus -28.2373 20.5466 77.6074
lradius 17.1905
lwrist -36.115
lhand -6.58074 8.51885
lfingers 7.12502
lthumb 19.274 37.5837
rfemur -7.73386 -2.07659 24.8517
rtibia 22.4948
rfoot -22.7819 21.3056
rtoes 25.7858
lfemur -35.7787 -2.20997 -16.2156
ltibia 21.555
lfoot 3.13823 -2.56753
ltoes 6.70845
150
root -13.2484 16.1431 31.7889 -170.741 0.57891 -178.856
lowerback -7.61018 -0.620844 -0.927126
upperback 2.23963 -0.723762 -0.107358
thorax 6.62794 -0.389208 0.313418
lowerneck 0.962416 -1.37771 -4.9421
upperneck -9.72596 -0.935317 8.04154
head -3.29131 -0.382812 3.6121
rclavicle 7.05686e-015 -7.55382e-015
rhumerus -32.7735 -19.3644 -79.8521
rradius 26.3569
rwrist 32.0731
rhand -2.8492 -5.52532
rfingers 7.12502
rthumb 22.8587 -34.1906
lclavicle 7.05686e-015 -7.55382e-015
lhumerus -28.6161 22.1541 76.582
lradius 16.5865
lwrist -37.8375
lhand -6.65721 8.3553
lfingers 7.12502
lthumb 19.2005 37.4275
rfemur -6.57229 -2.05953 24.9272
rtibia 21.7105
rfoot -22.4199 21.1994
rtoes 24.5502
lfemur -35.3693 -1.33957 -16.5372
ltibia 19.0235
lfoot 4.25614 -4.24687
ltoes 3.00225
151
root -13.2587 16.1384 31.5863 -170.66 0.737708 -178.848
lowerback -7.8115 -0.630793 -0.969661
upperback 2.2193 -0.733123 -0.0782713
thorax 6.72306 -0.396695 0.36446
lowerneck 0.853558 -1.35826 -4.9829
upperneck -9.65058 -0.922775 7.96321
head -3.24514 -0.372257 3.58789
rclavicle -2.98177e-015 -2.38542e-015
rhumerus -32.6681 -18.9433 -80.0714
rradius 26.6089
rwrist 31.8506
rhand -2.94568 -5.45299
rfingers 7.12502
rthumb 22.7661 -34.1297
lclavicle -2.98177e-015 -2.38542e-015
lhumerus -29.1522 23.8095 75.5714
lradius 16.0551
lwrist -39.3743
lhand -6.78728 8.26522
lfingers 7.12502
lthumb 19.0754 37.3498
rfemur -5.52055 -2.13256 24.8629
rtibia 21.0053
rfoot -23.1019 21.0547
rtoes 24.0859
lfemur -35.042 -0.438843 -17.1043
ltibia 17.1122
lfoot 5.25145 -4.67329
ltoes 6.23804
152
root -13.2726 16.1342 31.3781 -170.582 0.854519 -179.093
lowerback -8.00622 -0.637285 -1.26849
upperback 2.14928 -0.7052 -0.126846
thorax 6.76367 -0.394123 0.483843
lowerneck 1.00579 -1.34855 -4.99462
upperneck -9.73748 -0.919714 7.89695
head -3.30427 -0.372779 3.57167
rclavicle 7.20594e-015 7.95139e-016
rhumerus -32.7458 -18.7079 -80.1622
rradius 26.9058
rwrist 31.6721
rhand -2.82755 -5.4029
rfingers 7.12502
rthumb 22.8795 -34.0656
lclavicle 7.20594e-015 7.95139e-016
lhumerus -29.728 25.4305 74.5492
lradius 15.5022
lwrist -40.9468
lhand -6.91077 8.33204
lfingers 7.12502
lthumb 18.9566 37.4283
rfemur -4.5191 -2.09455 24.5218
rtibia 20.4729
rfoot -21.9081 21.2763
rtoes 25.8608
lfemur -34.6976 0.581501 -18.0877
ltibia 15.8486
lfoot 6.05714 -5.51957
ltoes 6.63166
153
root -13.2915 16.124 31.162 -170.43 0.948045 -179.22
lowerback -8.31879 -0.576026 -1.3586
upperback 2.0503 -0.603973 -0.210632
thorax 6.8362 -0.346131 0.45848
lowerneck 1.13643 -1.38474 -4.90657
upperneck -9.76896 -0.972744 7.86825
head -3.33575 -0.405032 3.54916
rclavicle 2.48481e-015 1.98785e-015
rhumerus -32.926 -18.4408 -80.2749
rradius 27.1774
rwrist 31.2548
rhand -2.86249 -5.35677
rfingers 7.12502
rthumb 22.8459 -34.0236
lclavicle 2.48481e-015 1.98785e-015
lhumerus -30.3328 27.1195 73.3747
lradius 14.9245
lwrist -42.8436
lhand -7.00203 8.46822
lfingers 7.12502
lthumb 18.8689 37.573
rfemur -3.64072 -2.01472 24.2889
rtibia 20.0709
rfoot -22.6382 20.7055
rtoes 21.0215
lfemur -34.4035 1.28995 -18.826
ltibia 15.2156
lfoot 6.04324 -6.47099
ltoes 3.3764
